<mxfile host="app.diagrams.net" agent="Mozilla/5.0 (Macintosh; Intel Mac OS X 10_15_7) AppleWebKit/537.36 (KHTML, like Gecko) Chrome/128.0.0.0 Safari/537.36" version="26.0.14">
  <diagram name="Page-1" id="8Z7_evLXZ3AFa6QIbilB">
    <mxGraphModel grid="1" page="1" gridSize="10" guides="1" tooltips="1" connect="1" arrows="1" fold="1" pageScale="1" pageWidth="827" pageHeight="1169" math="0" shadow="0">
      <root>
        <mxCell id="0" />
        <mxCell id="1" parent="0" />
        <mxCell id="PhttnhTILiLuMVr8b6VJ-1" value="&lt;h1 style=&quot;margin-top: 0px;&quot;&gt;findings&lt;/h1&gt;&lt;div&gt;&lt;br&gt;&lt;/div&gt;&lt;div&gt;&lt;br&gt;&lt;/div&gt;" style="text;html=1;whiteSpace=wrap;overflow=hidden;rounded=0;" vertex="1" parent="1">
          <mxGeometry x="310" y="130" width="350" height="160" as="geometry" />
        </mxCell>
        <mxCell id="PhttnhTILiLuMVr8b6VJ-12" style="rounded=0;orthogonalLoop=1;jettySize=auto;html=1;" edge="1" parent="1" source="PhttnhTILiLuMVr8b6VJ-4" target="PhttnhTILiLuMVr8b6VJ-11">
          <mxGeometry relative="1" as="geometry" />
        </mxCell>
        <mxCell id="PhttnhTILiLuMVr8b6VJ-13" value="B" style="edgeLabel;html=1;align=center;verticalAlign=middle;resizable=0;points=[];" connectable="0" vertex="1" parent="PhttnhTILiLuMVr8b6VJ-12">
          <mxGeometry x="-0.3943" y="2" relative="1" as="geometry">
            <mxPoint as="offset" />
          </mxGeometry>
        </mxCell>
        <mxCell id="PhttnhTILiLuMVr8b6VJ-4" value="Start" style="ellipse;whiteSpace=wrap;html=1;" vertex="1" parent="1">
          <mxGeometry x="310" y="320" width="60" height="30" as="geometry" />
        </mxCell>
        <mxCell id="PhttnhTILiLuMVr8b6VJ-6" value="AAB" style="text;html=1;align=center;verticalAlign=middle;whiteSpace=wrap;rounded=0;" vertex="1" parent="1">
          <mxGeometry x="420" y="310" width="60" height="30" as="geometry" />
        </mxCell>
        <mxCell id="PhttnhTILiLuMVr8b6VJ-17" style="rounded=0;orthogonalLoop=1;jettySize=auto;html=1;entryX=0.5;entryY=0;entryDx=0;entryDy=0;" edge="1" parent="1" source="PhttnhTILiLuMVr8b6VJ-8" target="PhttnhTILiLuMVr8b6VJ-15">
          <mxGeometry relative="1" as="geometry" />
        </mxCell>
        <mxCell id="PhttnhTILiLuMVr8b6VJ-26" value="A" style="edgeLabel;html=1;align=center;verticalAlign=middle;resizable=0;points=[];" connectable="0" vertex="1" parent="PhttnhTILiLuMVr8b6VJ-17">
          <mxGeometry x="0.0628" y="-1" relative="1" as="geometry">
            <mxPoint as="offset" />
          </mxGeometry>
        </mxCell>
        <mxCell id="PhttnhTILiLuMVr8b6VJ-18" style="rounded=0;orthogonalLoop=1;jettySize=auto;html=1;exitX=0.5;exitY=1;exitDx=0;exitDy=0;" edge="1" parent="1" source="PhttnhTILiLuMVr8b6VJ-8" target="PhttnhTILiLuMVr8b6VJ-16">
          <mxGeometry relative="1" as="geometry" />
        </mxCell>
        <mxCell id="PhttnhTILiLuMVr8b6VJ-27" value="B" style="edgeLabel;html=1;align=center;verticalAlign=middle;resizable=0;points=[];" connectable="0" vertex="1" parent="PhttnhTILiLuMVr8b6VJ-18">
          <mxGeometry x="-0.5078" y="-2" relative="1" as="geometry">
            <mxPoint as="offset" />
          </mxGeometry>
        </mxCell>
        <mxCell id="PhttnhTILiLuMVr8b6VJ-8" value="A" style="ellipse;whiteSpace=wrap;html=1;" vertex="1" parent="1">
          <mxGeometry x="240" y="390" width="60" height="30" as="geometry" />
        </mxCell>
        <mxCell id="PhttnhTILiLuMVr8b6VJ-9" style="rounded=0;orthogonalLoop=1;jettySize=auto;html=1;entryX=0.6;entryY=0.034;entryDx=0;entryDy=0;entryPerimeter=0;" edge="1" parent="1" source="PhttnhTILiLuMVr8b6VJ-4" target="PhttnhTILiLuMVr8b6VJ-8">
          <mxGeometry relative="1" as="geometry" />
        </mxCell>
        <mxCell id="PhttnhTILiLuMVr8b6VJ-10" value="A" style="edgeLabel;html=1;align=center;verticalAlign=middle;resizable=0;points=[];" connectable="0" vertex="1" parent="PhttnhTILiLuMVr8b6VJ-9">
          <mxGeometry x="-0.4479" y="-2" relative="1" as="geometry">
            <mxPoint as="offset" />
          </mxGeometry>
        </mxCell>
        <mxCell id="PhttnhTILiLuMVr8b6VJ-11" value="B" style="ellipse;whiteSpace=wrap;html=1;" vertex="1" parent="1">
          <mxGeometry x="350" y="390" width="60" height="30" as="geometry" />
        </mxCell>
        <mxCell id="PhttnhTILiLuMVr8b6VJ-33" style="rounded=0;orthogonalLoop=1;jettySize=auto;html=1;" edge="1" parent="1" source="PhttnhTILiLuMVr8b6VJ-15">
          <mxGeometry relative="1" as="geometry">
            <mxPoint x="162.5" y="500" as="targetPoint" />
          </mxGeometry>
        </mxCell>
        <mxCell id="PhttnhTILiLuMVr8b6VJ-34" value="B" style="edgeLabel;html=1;align=center;verticalAlign=middle;resizable=0;points=[];" connectable="0" vertex="1" parent="PhttnhTILiLuMVr8b6VJ-33">
          <mxGeometry x="-0.4591" y="-1" relative="1" as="geometry">
            <mxPoint as="offset" />
          </mxGeometry>
        </mxCell>
        <mxCell id="PhttnhTILiLuMVr8b6VJ-15" value="AA" style="ellipse;whiteSpace=wrap;html=1;" vertex="1" parent="1">
          <mxGeometry x="190" y="450" width="50" height="30" as="geometry" />
        </mxCell>
        <mxCell id="PhttnhTILiLuMVr8b6VJ-38" style="edgeStyle=orthogonalEdgeStyle;rounded=0;orthogonalLoop=1;jettySize=auto;html=1;" edge="1" parent="1" source="PhttnhTILiLuMVr8b6VJ-16">
          <mxGeometry relative="1" as="geometry">
            <mxPoint x="275" y="520" as="targetPoint" />
          </mxGeometry>
        </mxCell>
        <mxCell id="PhttnhTILiLuMVr8b6VJ-39" value="A" style="edgeLabel;html=1;align=center;verticalAlign=middle;resizable=0;points=[];" connectable="0" vertex="1" parent="PhttnhTILiLuMVr8b6VJ-38">
          <mxGeometry x="-0.7931" relative="1" as="geometry">
            <mxPoint y="16" as="offset" />
          </mxGeometry>
        </mxCell>
        <mxCell id="PhttnhTILiLuMVr8b6VJ-16" value="AB" style="ellipse;whiteSpace=wrap;html=1;" vertex="1" parent="1">
          <mxGeometry x="250" y="450" width="50" height="30" as="geometry" />
        </mxCell>
        <mxCell id="PhttnhTILiLuMVr8b6VJ-20" style="rounded=0;orthogonalLoop=1;jettySize=auto;html=1;entryX=0.5;entryY=0;entryDx=0;entryDy=0;" edge="1" parent="1" target="PhttnhTILiLuMVr8b6VJ-22">
          <mxGeometry relative="1" as="geometry">
            <mxPoint x="395" y="418" as="sourcePoint" />
          </mxGeometry>
        </mxCell>
        <mxCell id="PhttnhTILiLuMVr8b6VJ-24" value="A" style="edgeLabel;html=1;align=center;verticalAlign=middle;resizable=0;points=[];" connectable="0" vertex="1" parent="PhttnhTILiLuMVr8b6VJ-20">
          <mxGeometry x="0.1052" y="-3" relative="1" as="geometry">
            <mxPoint as="offset" />
          </mxGeometry>
        </mxCell>
        <mxCell id="PhttnhTILiLuMVr8b6VJ-21" style="rounded=0;orthogonalLoop=1;jettySize=auto;html=1;exitX=0.755;exitY=0.954;exitDx=0;exitDy=0;exitPerimeter=0;" edge="1" parent="1" source="PhttnhTILiLuMVr8b6VJ-11">
          <mxGeometry relative="1" as="geometry">
            <mxPoint x="410" y="420" as="sourcePoint" />
            <mxPoint x="427.0706337822444" y="451.4645697407873" as="targetPoint" />
          </mxGeometry>
        </mxCell>
        <mxCell id="PhttnhTILiLuMVr8b6VJ-28" value="B" style="edgeLabel;html=1;align=center;verticalAlign=middle;resizable=0;points=[];" connectable="0" vertex="1" parent="PhttnhTILiLuMVr8b6VJ-21">
          <mxGeometry x="-0.1887" relative="1" as="geometry">
            <mxPoint as="offset" />
          </mxGeometry>
        </mxCell>
        <mxCell id="PhttnhTILiLuMVr8b6VJ-37" style="edgeStyle=orthogonalEdgeStyle;rounded=0;orthogonalLoop=1;jettySize=auto;html=1;" edge="1" parent="1" source="PhttnhTILiLuMVr8b6VJ-22">
          <mxGeometry relative="1" as="geometry">
            <mxPoint x="360" y="510" as="targetPoint" />
          </mxGeometry>
        </mxCell>
        <mxCell id="PhttnhTILiLuMVr8b6VJ-40" value="A" style="edgeLabel;html=1;align=center;verticalAlign=middle;resizable=0;points=[];" connectable="0" vertex="1" parent="PhttnhTILiLuMVr8b6VJ-37">
          <mxGeometry x="0.4713" y="1" relative="1" as="geometry">
            <mxPoint x="-1" y="-14" as="offset" />
          </mxGeometry>
        </mxCell>
        <mxCell id="PhttnhTILiLuMVr8b6VJ-22" value="&lt;div&gt;BA&lt;/div&gt;" style="ellipse;whiteSpace=wrap;html=1;" vertex="1" parent="1">
          <mxGeometry x="330" y="450" width="60" height="30" as="geometry" />
        </mxCell>
        <mxCell id="PhttnhTILiLuMVr8b6VJ-30" value="" style="verticalLabelPosition=bottom;verticalAlign=top;html=1;shape=mxgraph.basic.x;fillColor=#f8cecc;strokeColor=#b85450;" vertex="1" parent="1">
          <mxGeometry x="414" y="420" width="20" height="20" as="geometry" />
        </mxCell>
        <mxCell id="PhttnhTILiLuMVr8b6VJ-41" value="AAB" style="ellipse;whiteSpace=wrap;html=1;" vertex="1" parent="1">
          <mxGeometry x="130" y="500" width="50" height="30" as="geometry" />
        </mxCell>
        <mxCell id="PhttnhTILiLuMVr8b6VJ-42" value="ABA" style="ellipse;whiteSpace=wrap;html=1;" vertex="1" parent="1">
          <mxGeometry x="245" y="520" width="50" height="30" as="geometry" />
        </mxCell>
        <mxCell id="PhttnhTILiLuMVr8b6VJ-43" value="BAA" style="ellipse;whiteSpace=wrap;html=1;" vertex="1" parent="1">
          <mxGeometry x="335" y="510" width="50" height="30" as="geometry" />
        </mxCell>
        <mxCell id="PhttnhTILiLuMVr8b6VJ-44" style="rounded=0;orthogonalLoop=1;jettySize=auto;html=1;exitX=0.755;exitY=0.954;exitDx=0;exitDy=0;exitPerimeter=0;" edge="1" parent="1">
          <mxGeometry relative="1" as="geometry">
            <mxPoint x="375" y="477.54" as="sourcePoint" />
            <mxPoint x="407.0706337822444" y="510.0045697407873" as="targetPoint" />
          </mxGeometry>
        </mxCell>
        <mxCell id="PhttnhTILiLuMVr8b6VJ-45" value="B" style="edgeLabel;html=1;align=center;verticalAlign=middle;resizable=0;points=[];" connectable="0" vertex="1" parent="PhttnhTILiLuMVr8b6VJ-44">
          <mxGeometry x="-0.1887" relative="1" as="geometry">
            <mxPoint as="offset" />
          </mxGeometry>
        </mxCell>
        <mxCell id="PhttnhTILiLuMVr8b6VJ-46" value="" style="verticalLabelPosition=bottom;verticalAlign=top;html=1;shape=mxgraph.basic.x;fillColor=#f8cecc;strokeColor=#b85450;" vertex="1" parent="1">
          <mxGeometry x="394" y="478.54" width="20" height="20" as="geometry" />
        </mxCell>
      </root>
    </mxGraphModel>
  </diagram>
</mxfile>
